<svg width="512" height="512" viewBox="0 0 512 512" fill="none" xmlns="http://www.w3.org/2000/svg">
<g clip-path="url(#clip0_306_2)">
<rect x="2.5" y="2.5" width="507" height="507" rx="47.5" fill="url(#paint0_radial_306_2)" stroke="url(#paint1_linear_306_2)" stroke-width="5"/>
<g clip-path="url(#clip1_306_2)" filter="url(#filter0_i_306_2)">
<path d="M156.248 85C116.982 85 85 116.982 85 156.248C85 190.635 109.53 219.441 142.002 226.064V327.248C142.002 358.696 167.866 384.25 198.998 384.25H199.519C202.998 408.358 223.833 427 248.877 427C276.338 427 298.75 404.588 298.75 377.127C298.75 349.665 276.338 327.248 248.877 327.248C223.836 327.248 203.001 345.89 199.519 369.998H198.998C175.654 369.998 156.248 350.889 156.248 327.248V255.41C160.859 260.114 166.364 263.851 172.439 266.4C178.513 268.948 185.036 270.258 191.624 270.252H199.519C203.001 294.36 223.833 313.002 248.877 313.002C273.918 313.002 294.75 294.36 298.226 270.252H327.769C331.251 294.36 352.083 313.002 377.127 313.002C404.588 313.002 427 290.585 427 263.123C427 235.662 404.588 213.25 377.127 213.25C352.083 213.25 331.248 231.892 327.769 256H298.229C294.753 231.892 273.92 213.25 248.877 213.25C223.833 213.25 202.998 231.892 199.519 256H191.624C174.436 256 160.114 243.739 156.922 227.486C195.877 227.122 227.502 195.29 227.502 156.248C227.502 116.982 195.514 85 156.248 85ZM156.248 99.2518C163.738 99.237 171.156 100.701 178.078 103.56C185 106.419 191.29 110.617 196.586 115.912C201.882 121.208 206.08 127.497 208.94 134.419C211.799 141.341 213.264 148.759 213.25 156.248C213.264 163.738 211.799 171.156 208.94 178.079C206.08 185.001 201.882 191.29 196.586 196.586C191.29 201.882 185.001 206.08 178.079 208.94C171.156 211.799 163.738 213.264 156.248 213.25C148.759 213.264 141.341 211.799 134.419 208.94C127.497 206.08 121.208 201.882 115.912 196.586C110.617 191.29 106.419 185 103.56 178.078C100.701 171.156 99.237 163.738 99.2518 156.248C99.237 148.759 100.701 141.341 103.56 134.419C106.419 127.497 110.617 121.208 115.913 115.913C121.208 110.617 127.497 106.419 134.419 103.56C141.341 100.701 148.759 99.237 156.248 99.2518ZM142.314 119.4C134.884 119.438 127.75 125.407 127.75 133.537V179.074C127.75 189.876 140.332 196.877 149.512 191.186L185.941 168.595C194.643 163.198 194.688 149.886 186.026 144.428L149.595 121.476C147.418 120.1 144.89 119.379 142.314 119.4ZM142.002 133.537L178.433 156.483L142.002 179.074V133.537ZM248.877 227.502C253.559 227.487 258.198 228.398 262.526 230.183C266.855 231.968 270.787 234.591 274.098 237.902C277.409 241.213 280.032 245.145 281.817 249.474C283.602 253.802 284.513 258.441 284.498 263.123C284.513 267.805 283.601 272.444 281.816 276.773C280.031 281.101 277.408 285.034 274.098 288.346C270.787 291.657 266.854 294.28 262.526 296.066C258.198 297.852 253.559 298.764 248.877 298.75C244.194 298.764 239.555 297.852 235.226 296.067C230.898 294.281 226.964 291.658 223.653 288.347C220.342 285.036 217.719 281.102 215.933 276.774C214.148 272.445 213.236 267.806 213.25 263.123C213.236 258.441 214.148 253.802 215.934 249.474C217.72 245.146 220.343 241.213 223.654 237.902C226.966 234.592 230.899 231.969 235.227 230.184C239.556 228.399 244.195 227.487 248.877 227.502ZM377.127 227.502C381.809 227.487 386.448 228.398 390.776 230.183C395.105 231.968 399.037 234.591 402.348 237.902C405.659 241.213 408.282 245.145 410.067 249.474C411.852 253.802 412.763 258.441 412.748 263.123C412.763 267.805 411.851 272.444 410.066 276.773C408.281 281.101 405.658 285.034 402.348 288.346C399.037 291.657 395.104 294.28 390.776 296.066C386.448 297.852 381.809 298.764 377.127 298.75C372.444 298.764 367.805 297.852 363.476 296.067C359.148 294.281 355.214 291.658 351.903 288.347C348.592 285.036 345.969 281.102 344.183 276.774C342.398 272.445 341.486 267.806 341.5 263.123C341.486 258.441 342.398 253.802 344.184 249.474C345.97 245.146 348.593 241.213 351.904 237.902C355.216 234.592 359.149 231.969 363.477 230.184C367.806 228.399 372.445 227.487 377.127 227.502ZM263.39 246.074C262.454 246.073 261.527 246.257 260.662 246.614C259.797 246.972 259.011 247.497 258.349 248.158L241.516 264.975L235.924 259.407C234.585 258.073 232.772 257.325 230.882 257.328C228.993 257.331 227.182 258.085 225.848 259.423C225.187 260.086 224.664 260.873 224.308 261.738C223.951 262.603 223.769 263.53 223.771 264.466C223.773 265.402 223.959 266.328 224.319 267.192C224.679 268.056 225.206 268.841 225.869 269.501L236.487 280.082C237.823 281.413 239.633 282.16 241.519 282.16C243.405 282.159 245.214 281.411 246.55 280.079L268.419 258.239C269.081 257.578 269.606 256.792 269.965 255.928C270.324 255.063 270.509 254.137 270.509 253.201C270.51 252.265 270.326 251.338 269.968 250.473C269.61 249.609 269.086 248.823 268.424 248.161C267.089 246.827 265.278 246.074 263.39 246.074ZM391.64 246.074C390.704 246.073 389.777 246.257 388.912 246.614C388.047 246.972 387.261 247.497 386.599 248.158L369.766 264.975L364.174 259.407C362.835 258.073 361.022 257.325 359.132 257.328C357.243 257.331 355.432 258.085 354.098 259.423C353.437 260.086 352.914 260.873 352.558 261.738C352.201 262.603 352.019 263.53 352.021 264.466C352.023 265.402 352.209 266.328 352.569 267.192C352.929 268.056 353.456 268.841 354.119 269.501L364.737 280.082C366.073 281.413 367.883 282.16 369.769 282.16C371.655 282.159 373.464 281.411 374.8 280.079L396.669 258.239C397.331 257.578 397.856 256.792 398.215 255.928C398.574 255.063 398.759 254.137 398.759 253.201C398.76 252.265 398.576 251.338 398.218 250.473C397.86 249.609 397.336 248.823 396.674 248.161C395.339 246.827 393.528 246.074 391.64 246.074ZM248.877 341.5C253.559 341.486 258.198 342.398 262.526 344.184C266.854 345.97 270.787 348.593 274.098 351.904C277.408 355.216 280.031 359.149 281.816 363.477C283.601 367.806 284.513 372.445 284.498 377.127C284.513 381.809 283.602 386.448 281.817 390.776C280.032 395.105 277.409 399.037 274.098 402.348C270.787 405.659 266.855 408.282 262.526 410.067C258.198 411.852 253.559 412.763 248.877 412.748C244.195 412.763 239.556 411.851 235.227 410.066C230.899 408.281 226.966 405.658 223.654 402.348C220.343 399.037 217.72 395.104 215.934 390.776C214.148 386.448 213.236 381.809 213.25 377.127C213.236 372.444 214.148 367.805 215.933 363.476C217.719 359.148 220.342 355.214 223.653 351.903C226.964 348.592 230.898 345.969 235.226 344.183C239.555 342.398 244.194 341.486 248.877 341.5ZM234.625 366.439C228.766 366.439 223.938 371.267 223.938 377.127C223.938 382.992 228.768 387.814 234.625 387.814C240.482 387.814 245.312 382.992 245.312 377.127C245.312 371.267 240.484 366.439 234.625 366.439ZM263.123 366.439C257.264 366.439 252.436 371.267 252.436 377.127C252.436 382.992 257.266 387.814 263.123 387.814C268.98 387.814 273.811 382.992 273.811 377.127C273.811 371.267 268.983 366.439 263.123 366.439ZM234.625 373.562C236.629 373.562 238.189 375.126 238.189 377.127C238.189 379.139 236.632 380.686 234.625 380.686C232.621 380.686 231.061 379.136 231.061 377.127C231.061 375.123 232.624 373.562 234.625 373.562ZM263.123 373.562C265.127 373.562 266.688 375.126 266.688 377.127C266.688 379.139 265.13 380.686 263.123 380.686C261.119 380.686 259.564 379.136 259.564 377.127C259.564 375.123 261.122 373.562 263.123 373.562Z" fill="url(#paint2_linear_306_2)"/>
<path d="M377.127 327.248C352.057 327.248 331.203 345.932 327.759 370.081C327.523 370.059 327.287 370.05 327.051 370.051L319.836 370.292C317.949 370.354 316.163 371.163 314.871 372.541C313.579 373.92 312.888 375.754 312.948 377.642C313.01 379.531 313.82 381.317 315.199 382.609C316.578 383.9 318.413 384.592 320.301 384.53L327.515 384.298C327.602 384.294 327.688 384.289 327.775 384.282C331.267 408.374 352.094 427 377.127 427C404.588 427 427 404.588 427 377.127C427 349.665 404.588 327.248 377.127 327.248ZM377.127 341.5C381.809 341.486 386.448 342.398 390.776 344.184C395.104 345.969 399.037 348.593 402.348 351.904C405.658 355.215 408.281 359.148 410.066 363.477C411.851 367.806 412.763 372.444 412.748 377.127C412.763 381.809 411.852 386.447 410.067 390.776C408.282 395.104 405.659 399.037 402.348 402.348C399.037 405.659 395.105 408.282 390.776 410.067C386.448 411.852 381.809 412.763 377.127 412.748C372.445 412.763 367.806 411.851 363.477 410.066C359.149 408.281 355.216 405.658 351.904 402.347C348.593 399.037 345.97 395.104 344.184 390.776C342.398 386.447 341.486 381.809 341.5 377.127C341.486 372.444 342.398 367.805 344.183 363.476C345.969 359.147 348.592 355.214 351.903 351.903C355.214 348.592 359.148 345.968 363.476 344.183C367.805 342.398 372.444 341.486 377.127 341.5Z" fill="url(#paint3_linear_306_2)"/>
</g>
</g>
<defs>
<filter id="filter0_i_306_2" x="85" y="85" width="342" height="352" filterUnits="userSpaceOnUse" color-interpolation-filters="sRGB">
<feFlood flood-opacity="0" result="BackgroundImageFix"/>
<feBlend mode="normal" in="SourceGraphic" in2="BackgroundImageFix" result="shape"/>
<feColorMatrix in="SourceAlpha" type="matrix" values="0 0 0 0 0 0 0 0 0 0 0 0 0 0 0 0 0 0 127 0" result="hardAlpha"/>
<feOffset dy="10"/>
<feGaussianBlur stdDeviation="5"/>
<feComposite in2="hardAlpha" operator="arithmetic" k2="-1" k3="1"/>
<feColorMatrix type="matrix" values="0 0 0 0 0 0 0 0 0 0 0 0 0 0 0 0 0 0 0.25 0"/>
<feBlend mode="normal" in2="shape" result="effect1_innerShadow_306_2"/>
</filter>
<radialGradient id="paint0_radial_306_2" cx="0" cy="0" r="1" gradientUnits="userSpaceOnUse" gradientTransform="translate(256) rotate(90) scale(512)">
<stop stop-color="white"/>
<stop offset="1" stop-color="#959595"/>
</radialGradient>
<linearGradient id="paint1_linear_306_2" x1="256" y1="0" x2="256" y2="512" gradientUnits="userSpaceOnUse">
<stop stop-color="white"/>
<stop offset="1" stop-color="#5E5E5E"/>
</linearGradient>
<linearGradient id="paint2_linear_306_2" x1="256" y1="85" x2="256" y2="427" gradientUnits="userSpaceOnUse">
<stop stop-color="#4C96EA"/>
<stop offset="1" stop-color="#0077FF"/>
</linearGradient>
<linearGradient id="paint3_linear_306_2" x1="369.972" y1="327.248" x2="369.972" y2="427" gradientUnits="userSpaceOnUse">
<stop stop-color="#93C6FF"/>
<stop offset="1" stop-color="#388CEB"/>
</linearGradient>
<clipPath id="clip0_306_2">
<rect width="512" height="512" fill="white"/>
</clipPath>
<clipPath id="clip1_306_2">
<rect width="342" height="342" fill="white" transform="translate(85 85)"/>
</clipPath>
</defs>
</svg>
