<svg width="512" height="512" viewBox="0 0 512 512" fill="none" xmlns="http://www.w3.org/2000/svg">
<g clip-path="url(#clip0_311_16)">
<rect x="2.5" y="2.5" width="507" height="507" rx="47.5" fill="url(#paint0_radial_311_16)" stroke="url(#paint1_linear_311_16)" stroke-width="5"/>
<g filter="url(#filter0_i_311_16)">
<path d="M187.388 367.021V207.02C187.388 185.37 195.988 164.606 211.298 149.297C226.607 133.988 247.37 125.388 269.021 125.388H301.674" stroke="#FF6600" stroke-width="30"/>
</g>
<g filter="url(#filter1_i_311_16)">
<path d="M187.388 367.021V318.041C187.388 296.391 195.988 275.627 211.298 260.318C226.607 245.009 247.37 236.408 269.021 236.408H301.674" stroke="#D40000" stroke-width="30"/>
</g>
<g filter="url(#filter2_i_311_16)">
<path d="M324.531 154.776C340.761 154.776 353.919 141.618 353.919 125.388C353.919 109.157 340.761 96 324.531 96C308.3 96 295.143 109.157 295.143 125.388C295.143 141.618 308.3 154.776 324.531 154.776Z" stroke="#FF6600" stroke-width="30"/>
</g>
<g filter="url(#filter3_i_311_16)">
<path d="M324.531 265.796C340.761 265.796 353.919 252.639 353.919 236.408C353.919 220.178 340.761 207.021 324.531 207.021C308.3 207.021 295.143 220.178 295.143 236.408C295.143 252.639 308.3 265.796 324.531 265.796Z" stroke="#D40000" stroke-width="30"/>
</g>
<g filter="url(#filter4_i_311_16)">
<path d="M187.388 416C203.618 416 216.776 402.843 216.776 386.612C216.776 370.382 203.618 357.225 187.388 357.225C171.157 357.225 158 370.382 158 386.612C158 402.843 171.157 416 187.388 416Z" stroke="#D40000" stroke-width="30"/>
</g>
</g>
<defs>
<filter id="filter0_i_311_16" x="172.388" y="110.388" width="129.286" height="266.633" filterUnits="userSpaceOnUse" color-interpolation-filters="sRGB">
<feFlood flood-opacity="0" result="BackgroundImageFix"/>
<feBlend mode="normal" in="SourceGraphic" in2="BackgroundImageFix" result="shape"/>
<feColorMatrix in="SourceAlpha" type="matrix" values="0 0 0 0 0 0 0 0 0 0 0 0 0 0 0 0 0 0 127 0" result="hardAlpha"/>
<feOffset dy="10"/>
<feGaussianBlur stdDeviation="5"/>
<feComposite in2="hardAlpha" operator="arithmetic" k2="-1" k3="1"/>
<feColorMatrix type="matrix" values="0 0 0 0 0 0 0 0 0 0 0 0 0 0 0 0 0 0 0.25 0"/>
<feBlend mode="normal" in2="shape" result="effect1_innerShadow_311_16"/>
</filter>
<filter id="filter1_i_311_16" x="172.388" y="221.408" width="129.286" height="155.612" filterUnits="userSpaceOnUse" color-interpolation-filters="sRGB">
<feFlood flood-opacity="0" result="BackgroundImageFix"/>
<feBlend mode="normal" in="SourceGraphic" in2="BackgroundImageFix" result="shape"/>
<feColorMatrix in="SourceAlpha" type="matrix" values="0 0 0 0 0 0 0 0 0 0 0 0 0 0 0 0 0 0 127 0" result="hardAlpha"/>
<feOffset dy="10"/>
<feGaussianBlur stdDeviation="5"/>
<feComposite in2="hardAlpha" operator="arithmetic" k2="-1" k3="1"/>
<feColorMatrix type="matrix" values="0 0 0 0 0 0 0 0 0 0 0 0 0 0 0 0 0 0 0.25 0"/>
<feBlend mode="normal" in2="shape" result="effect1_innerShadow_311_16"/>
</filter>
<filter id="filter2_i_311_16" x="280.143" y="81" width="88.7756" height="98.7754" filterUnits="userSpaceOnUse" color-interpolation-filters="sRGB">
<feFlood flood-opacity="0" result="BackgroundImageFix"/>
<feBlend mode="normal" in="SourceGraphic" in2="BackgroundImageFix" result="shape"/>
<feColorMatrix in="SourceAlpha" type="matrix" values="0 0 0 0 0 0 0 0 0 0 0 0 0 0 0 0 0 0 127 0" result="hardAlpha"/>
<feOffset dy="10"/>
<feGaussianBlur stdDeviation="5"/>
<feComposite in2="hardAlpha" operator="arithmetic" k2="-1" k3="1"/>
<feColorMatrix type="matrix" values="0 0 0 0 0 0 0 0 0 0 0 0 0 0 0 0 0 0 0.25 0"/>
<feBlend mode="normal" in2="shape" result="effect1_innerShadow_311_16"/>
</filter>
<filter id="filter3_i_311_16" x="280.143" y="192.021" width="88.7756" height="98.7754" filterUnits="userSpaceOnUse" color-interpolation-filters="sRGB">
<feFlood flood-opacity="0" result="BackgroundImageFix"/>
<feBlend mode="normal" in="SourceGraphic" in2="BackgroundImageFix" result="shape"/>
<feColorMatrix in="SourceAlpha" type="matrix" values="0 0 0 0 0 0 0 0 0 0 0 0 0 0 0 0 0 0 127 0" result="hardAlpha"/>
<feOffset dy="10"/>
<feGaussianBlur stdDeviation="5"/>
<feComposite in2="hardAlpha" operator="arithmetic" k2="-1" k3="1"/>
<feColorMatrix type="matrix" values="0 0 0 0 0 0 0 0 0 0 0 0 0 0 0 0 0 0 0.25 0"/>
<feBlend mode="normal" in2="shape" result="effect1_innerShadow_311_16"/>
</filter>
<filter id="filter4_i_311_16" x="143" y="342.225" width="88.7756" height="98.7754" filterUnits="userSpaceOnUse" color-interpolation-filters="sRGB">
<feFlood flood-opacity="0" result="BackgroundImageFix"/>
<feBlend mode="normal" in="SourceGraphic" in2="BackgroundImageFix" result="shape"/>
<feColorMatrix in="SourceAlpha" type="matrix" values="0 0 0 0 0 0 0 0 0 0 0 0 0 0 0 0 0 0 127 0" result="hardAlpha"/>
<feOffset dy="10"/>
<feGaussianBlur stdDeviation="5"/>
<feComposite in2="hardAlpha" operator="arithmetic" k2="-1" k3="1"/>
<feColorMatrix type="matrix" values="0 0 0 0 0 0 0 0 0 0 0 0 0 0 0 0 0 0 0.25 0"/>
<feBlend mode="normal" in2="shape" result="effect1_innerShadow_311_16"/>
</filter>
<radialGradient id="paint0_radial_311_16" cx="0" cy="0" r="1" gradientUnits="userSpaceOnUse" gradientTransform="translate(256) rotate(90) scale(512)">
<stop stop-color="#575757"/>
<stop offset="1" stop-color="#222222"/>
</radialGradient>
<linearGradient id="paint1_linear_311_16" x1="256" y1="0" x2="256" y2="512" gradientUnits="userSpaceOnUse">
<stop stop-color="#707070"/>
<stop offset="1" stop-color="#0B0B0B"/>
</linearGradient>
<clipPath id="clip0_311_16">
<rect width="512" height="512" fill="white"/>
</clipPath>
</defs>
</svg>
