<svg width="512" height="512" viewBox="0 0 512 512" fill="none" xmlns="http://www.w3.org/2000/svg">
<g clip-path="url(#clip0_110_5)">
<rect x="2.5" y="2.5" width="507" height="507" rx="47.5" fill="url(#paint0_radial_110_5)" stroke="url(#paint1_linear_110_5)" stroke-width="5"/>
<g clip-path="url(#clip1_110_5)">
<path d="M256.099 412.099L318.291 220.443H193.907L256.099 412.099Z" fill="#E24329"/>
<path d="M256.099 412.099L193.907 220.443H106.746L256.099 412.099Z" fill="#FC6D26"/>
<path d="M106.746 220.443L87.8474 278.686C86.1236 283.998 88.0116 289.817 92.5247 293.1L256.099 412.099L106.746 220.443Z" fill="#FCA326"/>
<path d="M106.746 220.443H193.907L156.449 105.011C154.522 99.0704 146.13 99.072 144.203 105.011L106.746 220.443Z" fill="#E24329"/>
<path d="M256.099 412.099L318.291 220.443H405.451L256.099 412.099Z" fill="#FC6D26"/>
<path d="M405.451 220.443L424.35 278.686C426.074 283.998 424.186 289.817 419.673 293.1L256.099 412.099L405.451 220.443Z" fill="#FCA326"/>
<path d="M405.451 220.443H318.291L355.749 105.011C357.676 99.0704 366.068 99.072 367.995 105.011L405.451 220.443Z" fill="#E24329"/>
</g>
</g>
<defs>
<radialGradient id="paint0_radial_110_5" cx="0" cy="0" r="1" gradientUnits="userSpaceOnUse" gradientTransform="translate(256) rotate(90) scale(512)">
<stop stop-color="#FFA800"/>
<stop offset="1" stop-color="#753100"/>
</radialGradient>
<linearGradient id="paint1_linear_110_5" x1="256" y1="0" x2="256" y2="512" gradientUnits="userSpaceOnUse">
<stop stop-color="#FFBC3C"/>
<stop offset="1" stop-color="#6F2E00"/>
</linearGradient>
<clipPath id="clip0_110_5">
<rect width="512" height="512" fill="white"/>
</clipPath>
<clipPath id="clip1_110_5">
<rect width="338" height="312" fill="white" transform="translate(87 100)"/>
</clipPath>
</defs>
</svg>
