<svg width="512" height="512" viewBox="0 0 512 512" fill="none" xmlns="http://www.w3.org/2000/svg">
<g clip-path="url(#clip0_221_7)">
<rect x="2.5" y="2.5" width="507" height="507" rx="47.5" fill="url(#paint0_radial_221_7)" stroke="url(#paint1_linear_221_7)" stroke-width="5"/>
<g filter="url(#filter0_i_221_7)">
<path d="M402.547 290.019C402.077 290.019 401.607 290.019 401.607 289.551C401.607 289.083 400.668 289.083 399.729 289.083C397.85 288.615 395.972 288.615 394.093 288.615C393.154 288.615 392.214 288.615 391.275 288.147H390.806C385.639 287.679 380.004 286.742 374.838 285.338C373.429 284.87 372.02 283.465 371.55 282.06L367.793 281.124C369.672 267.547 368.733 253.502 365.915 239.925C362.627 226.347 356.992 213.239 349.477 201.534L352.295 198.725V198.257C352.295 196.852 352.765 194.98 353.704 194.043C357.931 190.298 362.158 187.489 366.854 184.68C367.793 184.212 368.733 183.743 369.672 183.275C371.55 182.339 372.959 181.402 374.838 180.466C375.307 179.998 375.777 179.998 376.247 179.53C376.716 179.062 376.247 179.062 376.247 178.593C380.473 175.316 381.413 169.698 378.125 165.484C376.716 163.612 373.899 162.207 371.55 162.207C369.202 162.207 366.854 163.144 364.975 164.548L364.506 165.016C364.036 165.484 363.566 165.953 363.097 165.953C361.688 167.357 360.279 168.762 359.34 170.166C358.87 171.103 357.931 171.571 357.461 172.039C354.174 175.784 349.947 179.53 345.72 182.339C344.781 182.807 343.842 183.275 342.902 183.275C342.433 183.275 341.493 183.275 341.024 182.807H340.554L336.797 185.148C333.04 181.402 328.813 177.657 325.056 173.912C307.679 160.335 286.076 151.907 264.003 149.566L263.533 145.821V146.289C262.125 145.353 261.655 143.948 261.185 142.544C261.185 137.394 261.185 132.244 262.125 126.626V126.158C262.125 125.221 262.594 124.285 262.594 123.349C263.064 121.476 263.064 119.603 263.533 117.73V114.921C264.003 110.24 260.246 105.558 255.55 105.09C252.732 104.622 249.914 106.026 247.566 108.367C245.687 110.24 244.748 112.581 244.748 114.921V117.262C244.748 119.135 245.218 121.008 245.687 122.88C246.157 123.817 246.157 124.753 246.157 125.689V126.158C247.096 131.308 247.096 136.458 247.096 142.076C246.626 143.48 246.157 144.885 244.748 145.821V146.757L244.278 150.503C239.112 150.971 233.946 151.907 228.311 152.844C206.238 157.525 186.043 169.23 170.545 185.616L167.727 183.743H167.258C166.788 183.743 166.318 184.212 165.379 184.212C164.44 184.212 163.5 183.743 162.561 183.275C158.334 179.998 154.108 176.253 150.82 172.507C150.351 171.571 149.411 171.103 148.942 170.634C147.533 169.23 146.593 167.825 145.185 166.421C144.715 165.953 144.245 165.953 143.776 165.484C143.306 165.016 143.306 165.016 143.306 165.016C141.427 163.612 139.079 162.675 136.731 162.675C133.913 162.675 131.565 163.612 130.156 165.953C127.338 170.166 128.278 175.784 132.035 179.062C132.504 179.062 132.504 179.53 132.504 179.53C132.504 179.53 133.444 180.466 133.913 180.466C135.322 181.402 137.201 182.339 139.079 183.275C140.018 183.743 140.958 184.212 141.897 184.68C146.593 187.489 151.29 190.298 155.047 194.043C155.986 194.98 156.925 196.852 156.456 198.257V197.789L159.274 200.598C158.804 201.534 158.334 202.002 157.865 202.939C143.306 225.879 137.201 253.034 141.427 279.72L137.67 280.656C137.67 281.124 137.201 281.124 137.201 281.124C136.731 282.529 135.322 283.465 133.913 284.401C128.747 285.806 123.581 286.742 117.945 287.21C117.006 287.21 116.067 287.21 115.128 287.679C113.249 287.679 111.371 288.147 109.492 288.147C109.022 288.147 108.553 288.615 107.613 288.615C107.144 288.615 107.144 288.615 106.674 289.083C101.508 290.019 98.2206 294.701 99.1599 299.851C100.099 304.065 104.326 306.874 108.553 306.406C109.492 306.406 109.962 306.406 110.901 305.937C111.371 305.937 111.371 305.937 111.371 305.469C111.371 305.001 112.779 305.469 113.249 305.469C115.128 305.001 117.006 304.065 118.415 303.597C119.354 303.128 120.294 302.66 121.233 302.66H121.703C126.869 300.788 131.565 299.383 137.201 298.447H137.67C139.079 298.447 140.488 298.915 141.427 299.851C141.897 299.851 141.897 300.319 141.897 300.319L146.124 299.851C153.168 321.387 166.318 340.583 184.634 354.628C188.861 357.905 192.618 360.714 197.314 363.055L194.966 366.332C194.966 366.8 195.436 366.8 195.436 366.8C196.375 368.205 196.375 370.078 195.905 371.482C194.027 376.164 191.209 380.846 188.391 385.059V385.528C187.922 386.464 187.452 386.932 186.513 387.868C185.573 388.805 184.634 390.677 183.225 392.55C182.756 393.018 182.756 393.487 182.286 393.955C182.286 393.955 182.286 394.423 181.816 394.423C179.468 399.105 181.347 404.723 185.573 407.064C186.513 407.532 187.922 408 188.861 408C192.618 408 195.905 405.659 197.784 402.382C197.784 402.382 197.784 401.914 198.254 401.914C198.254 401.446 198.723 400.977 199.193 400.509C199.663 398.636 200.602 397.232 201.072 395.359L202.011 392.55C203.42 387.4 205.768 382.718 208.116 378.037C209.055 376.632 210.464 375.696 211.873 375.228C212.343 375.228 212.343 375.228 212.343 374.759L214.221 371.014C227.371 376.164 240.991 378.505 255.08 378.505C263.533 378.505 271.987 377.569 280.44 375.228C285.606 374.291 290.772 372.419 295.469 371.014L297.347 374.291C297.817 374.291 297.817 374.291 297.817 374.759C299.226 375.228 300.635 376.164 301.574 377.569C303.922 382.25 306.271 386.932 307.679 392.082V392.55L308.619 395.359C309.088 397.232 309.558 399.105 310.497 400.509C310.967 400.977 310.967 401.446 311.437 401.914C311.437 401.914 311.437 402.382 311.906 402.382C313.785 405.659 317.072 408 320.829 408C322.238 408 323.178 407.532 324.586 407.064C326.465 406.127 328.344 404.255 328.813 401.914C329.283 399.573 329.283 397.232 328.344 394.891C328.344 394.423 327.874 394.423 327.874 394.423C327.874 393.955 327.404 393.487 326.935 393.018C325.995 391.146 325.056 389.741 323.647 388.337C323.178 387.4 322.708 386.932 321.769 385.996V385.059C318.481 380.846 316.133 376.164 314.254 371.482C313.785 370.078 313.785 368.205 314.724 366.8C314.724 366.332 315.194 366.332 315.194 366.332L313.785 362.587C337.736 348.073 356.052 325.601 364.506 298.915L368.263 299.383C368.733 299.383 368.733 298.915 368.733 298.915C369.672 297.978 371.081 297.51 372.49 297.51H372.959C378.125 298.447 383.291 299.851 387.988 301.724H388.457C389.397 302.192 390.336 302.66 391.275 302.66C393.154 303.597 394.563 304.533 396.441 305.001C396.911 305.001 397.38 305.469 398.32 305.469C398.789 305.469 398.789 305.469 399.259 305.937C400.198 306.406 400.668 306.406 401.607 306.406C405.834 306.406 409.591 303.597 411 299.851C410.53 294.701 406.773 290.956 402.547 290.019ZM266.821 275.506L254.141 281.592L241.46 275.506L238.173 261.929L247.096 250.693H261.185L270.108 261.929L266.821 275.506ZM343.372 245.075C345.72 254.906 346.19 264.738 345.251 274.57L300.635 261.929C296.408 260.993 294.06 256.779 294.999 252.565C295.469 251.161 295.939 250.224 296.878 249.288L332.101 217.452C337.267 225.879 341.024 235.243 343.372 245.075ZM318.012 200.13L279.501 227.284C276.214 229.157 271.517 228.688 269.169 225.411C268.23 224.475 267.76 223.538 267.76 222.134L264.942 174.848C285.606 177.189 303.922 186.084 318.012 200.13ZM233.007 176.253L242.4 174.38L240.052 221.198C240.052 225.411 236.294 228.688 232.068 228.688C230.659 228.688 229.719 228.22 228.311 227.752L189.331 200.13C201.541 188.425 216.57 179.998 233.007 176.253ZM175.711 217.452L210.464 248.352C213.752 251.161 214.221 255.843 211.404 259.12C210.464 260.524 209.525 260.993 207.646 261.461L162.092 274.57C160.683 254.906 165.379 234.775 175.711 217.452ZM167.727 296.574L214.221 288.615C217.979 288.615 221.736 290.956 222.205 294.701C222.675 296.106 222.675 297.978 221.736 299.383L203.889 342.455C187.452 331.687 174.302 315.301 167.727 296.574ZM274.335 354.628C267.76 356.032 261.185 356.969 254.141 356.969C244.278 356.969 233.946 355.096 224.553 352.287L247.566 310.619C249.914 307.81 253.671 306.874 256.958 308.747C258.367 309.683 259.307 310.619 260.716 312.024L283.258 352.755C280.44 353.223 277.623 353.692 274.335 354.628ZM331.631 313.896C324.586 325.133 314.724 334.964 303.453 341.987L285.137 297.978C284.198 294.233 286.076 290.488 289.364 289.083C290.772 288.615 292.181 288.147 293.59 288.147L340.554 296.106C338.206 302.66 335.388 308.747 331.631 313.896Z" fill="url(#paint2_linear_221_7)"/>
</g>
</g>
<defs>
<filter id="filter0_i_221_7" x="99" y="105" width="312" height="313" filterUnits="userSpaceOnUse" color-interpolation-filters="sRGB">
<feFlood flood-opacity="0" result="BackgroundImageFix"/>
<feBlend mode="normal" in="SourceGraphic" in2="BackgroundImageFix" result="shape"/>
<feColorMatrix in="SourceAlpha" type="matrix" values="0 0 0 0 0 0 0 0 0 0 0 0 0 0 0 0 0 0 127 0" result="hardAlpha"/>
<feOffset dy="10"/>
<feGaussianBlur stdDeviation="5"/>
<feComposite in2="hardAlpha" operator="arithmetic" k2="-1" k3="1"/>
<feColorMatrix type="matrix" values="0 0 0 0 0 0 0 0 0 0 0 0 0 0 0 0 0 0 0.25 0"/>
<feBlend mode="normal" in2="shape" result="effect1_innerShadow_221_7"/>
</filter>
<radialGradient id="paint0_radial_221_7" cx="0" cy="0" r="1" gradientUnits="userSpaceOnUse" gradientTransform="translate(256) rotate(90) scale(512)">
<stop stop-color="white"/>
<stop offset="1" stop-color="#959595"/>
</radialGradient>
<linearGradient id="paint1_linear_221_7" x1="256" y1="0" x2="256" y2="512" gradientUnits="userSpaceOnUse">
<stop stop-color="white"/>
<stop offset="1" stop-color="#5E5E5E"/>
</linearGradient>
<linearGradient id="paint2_linear_221_7" x1="255" y1="105" x2="255" y2="408" gradientUnits="userSpaceOnUse">
<stop stop-color="#7EA7FC"/>
<stop offset="1" stop-color="#1550CA"/>
</linearGradient>
<clipPath id="clip0_221_7">
<rect width="512" height="512" fill="white"/>
</clipPath>
</defs>
</svg>
