<svg width="512" height="512" viewBox="0 0 512 512" fill="none" xmlns="http://www.w3.org/2000/svg">
<g clip-path="url(#clip0_221_2)">
<rect x="2.5" y="2.5" width="507" height="507" rx="47.5" fill="url(#paint0_radial_221_2)" stroke="url(#paint1_linear_221_2)" stroke-width="5"/>
<path d="M403.547 290.019C403.077 290.019 402.607 290.019 402.607 289.551C402.607 289.083 401.668 289.083 400.729 289.083C398.85 288.615 396.972 288.615 395.093 288.615C394.154 288.615 393.214 288.615 392.275 288.147H391.806C386.639 287.679 381.004 286.742 375.838 285.338C374.429 284.87 373.02 283.465 372.55 282.06L368.793 281.124C370.672 267.547 369.733 253.502 366.915 239.925C363.627 226.347 357.992 213.239 350.477 201.534L353.295 198.725V198.257C353.295 196.852 353.765 194.98 354.704 194.043C358.931 190.298 363.158 187.489 367.854 184.68C368.793 184.212 369.733 183.743 370.672 183.275C372.55 182.339 373.959 181.402 375.838 180.466C376.307 179.998 376.777 179.998 377.247 179.53C377.716 179.062 377.247 179.062 377.247 178.593C381.473 175.316 382.413 169.698 379.125 165.484C377.716 163.612 374.899 162.207 372.55 162.207C370.202 162.207 367.854 163.144 365.975 164.548L365.506 165.016C365.036 165.484 364.566 165.953 364.097 165.953C362.688 167.357 361.279 168.762 360.34 170.166C359.87 171.103 358.931 171.571 358.461 172.039C355.174 175.784 350.947 179.53 346.72 182.339C345.781 182.807 344.842 183.275 343.902 183.275C343.433 183.275 342.493 183.275 342.024 182.807H341.554L337.797 185.148C334.04 181.402 329.813 177.657 326.056 173.912C308.679 160.335 287.076 151.907 265.003 149.566L264.533 145.821V146.289C263.125 145.353 262.655 143.948 262.185 142.544C262.185 137.394 262.185 132.244 263.125 126.626V126.158C263.125 125.221 263.594 124.285 263.594 123.349C264.064 121.476 264.064 119.603 264.533 117.73V114.921C265.003 110.24 261.246 105.558 256.55 105.09C253.732 104.622 250.914 106.026 248.566 108.367C246.687 110.24 245.748 112.581 245.748 114.921V117.262C245.748 119.135 246.218 121.008 246.687 122.88C247.157 123.817 247.157 124.753 247.157 125.689V126.158C248.096 131.308 248.096 136.458 248.096 142.076C247.626 143.48 247.157 144.885 245.748 145.821V146.757L245.278 150.503C240.112 150.971 234.946 151.907 229.311 152.844C207.238 157.525 187.043 169.23 171.545 185.616L168.727 183.743H168.258C167.788 183.743 167.318 184.212 166.379 184.212C165.44 184.212 164.5 183.743 163.561 183.275C159.334 179.998 155.108 176.253 151.82 172.507C151.351 171.571 150.411 171.103 149.942 170.634C148.533 169.23 147.593 167.825 146.185 166.421C145.715 165.953 145.245 165.953 144.776 165.484C144.306 165.016 144.306 165.016 144.306 165.016C142.427 163.612 140.079 162.675 137.731 162.675C134.913 162.675 132.565 163.612 131.156 165.953C128.338 170.166 129.278 175.784 133.035 179.062C133.504 179.062 133.504 179.53 133.504 179.53C133.504 179.53 134.444 180.466 134.913 180.466C136.322 181.402 138.201 182.339 140.079 183.275C141.018 183.743 141.958 184.212 142.897 184.68C147.593 187.489 152.29 190.298 156.047 194.043C156.986 194.98 157.925 196.852 157.456 198.257V197.789L160.274 200.598C159.804 201.534 159.334 202.002 158.865 202.939C144.306 225.879 138.201 253.034 142.427 279.72L138.67 280.656C138.67 281.124 138.201 281.124 138.201 281.124C137.731 282.529 136.322 283.465 134.913 284.401C129.747 285.806 124.581 286.742 118.945 287.21C118.006 287.21 117.067 287.21 116.128 287.679C114.249 287.679 112.371 288.147 110.492 288.147C110.022 288.147 109.553 288.615 108.613 288.615C108.144 288.615 108.144 288.615 107.674 289.083C102.508 290.019 99.2206 294.701 100.16 299.851C101.099 304.065 105.326 306.874 109.553 306.406C110.492 306.406 110.962 306.406 111.901 305.937C112.371 305.937 112.371 305.937 112.371 305.469C112.371 305.001 113.779 305.469 114.249 305.469C116.128 305.001 118.006 304.065 119.415 303.597C120.354 303.128 121.294 302.66 122.233 302.66H122.703C127.869 300.788 132.565 299.383 138.201 298.447H138.67C140.079 298.447 141.488 298.915 142.427 299.851C142.897 299.851 142.897 300.319 142.897 300.319L147.124 299.851C154.168 321.387 167.318 340.583 185.634 354.628C189.861 357.905 193.618 360.714 198.314 363.055L195.966 366.332C195.966 366.8 196.436 366.8 196.436 366.8C197.375 368.205 197.375 370.078 196.905 371.482C195.027 376.164 192.209 380.846 189.391 385.059V385.528C188.922 386.464 188.452 386.932 187.513 387.868C186.573 388.805 185.634 390.677 184.225 392.55C183.756 393.018 183.756 393.487 183.286 393.955C183.286 393.955 183.286 394.423 182.816 394.423C180.468 399.105 182.347 404.723 186.573 407.064C187.513 407.532 188.922 408 189.861 408C193.618 408 196.905 405.659 198.784 402.382C198.784 402.382 198.784 401.914 199.254 401.914C199.254 401.446 199.723 400.977 200.193 400.509C200.663 398.636 201.602 397.232 202.072 395.359L203.011 392.55C204.42 387.4 206.768 382.718 209.116 378.037C210.055 376.632 211.464 375.696 212.873 375.228C213.343 375.228 213.343 375.228 213.343 374.759L215.221 371.014C228.371 376.164 241.991 378.505 256.08 378.505C264.533 378.505 272.987 377.569 281.44 375.228C286.606 374.291 291.772 372.419 296.469 371.014L298.347 374.291C298.817 374.291 298.817 374.291 298.817 374.759C300.226 375.228 301.635 376.164 302.574 377.569C304.922 382.25 307.271 386.932 308.679 392.082V392.55L309.619 395.359C310.088 397.232 310.558 399.105 311.497 400.509C311.967 400.977 311.967 401.446 312.437 401.914C312.437 401.914 312.437 402.382 312.906 402.382C314.785 405.659 318.072 408 321.829 408C323.238 408 324.178 407.532 325.586 407.064C327.465 406.127 329.344 404.255 329.813 401.914C330.283 399.573 330.283 397.232 329.344 394.891C329.344 394.423 328.874 394.423 328.874 394.423C328.874 393.955 328.404 393.487 327.935 393.018C326.995 391.146 326.056 389.741 324.647 388.337C324.178 387.4 323.708 386.932 322.769 385.996V385.059C319.481 380.846 317.133 376.164 315.254 371.482C314.785 370.078 314.785 368.205 315.724 366.8C315.724 366.332 316.194 366.332 316.194 366.332L314.785 362.587C338.736 348.073 357.052 325.601 365.506 298.915L369.263 299.383C369.733 299.383 369.733 298.915 369.733 298.915C370.672 297.978 372.081 297.51 373.49 297.51H373.959C379.125 298.447 384.291 299.851 388.988 301.724H389.457C390.397 302.192 391.336 302.66 392.275 302.66C394.154 303.597 395.563 304.533 397.441 305.001C397.911 305.001 398.38 305.469 399.32 305.469C399.789 305.469 399.789 305.469 400.259 305.937C401.198 306.406 401.668 306.406 402.607 306.406C406.834 306.406 410.591 303.597 412 299.851C411.53 294.701 407.773 290.956 403.547 290.019ZM267.821 275.506L255.141 281.592L242.46 275.506L239.173 261.929L248.096 250.693H262.185L271.108 261.929L267.821 275.506ZM344.372 245.075C346.72 254.906 347.19 264.738 346.251 274.57L301.635 261.929C297.408 260.993 295.06 256.779 295.999 252.565C296.469 251.161 296.939 250.224 297.878 249.288L333.101 217.452C338.267 225.879 342.024 235.243 344.372 245.075ZM319.012 200.13L280.501 227.284C277.214 229.157 272.517 228.688 270.169 225.411C269.23 224.475 268.76 223.538 268.76 222.134L265.942 174.848C286.606 177.189 304.922 186.084 319.012 200.13ZM234.007 176.253L243.4 174.38L241.052 221.198C241.052 225.411 237.294 228.688 233.068 228.688C231.659 228.688 230.719 228.22 229.311 227.752L190.331 200.13C202.541 188.425 217.57 179.998 234.007 176.253ZM176.711 217.452L211.464 248.352C214.752 251.161 215.221 255.843 212.404 259.12C211.464 260.524 210.525 260.993 208.646 261.461L163.092 274.57C161.683 254.906 166.379 234.775 176.711 217.452ZM168.727 296.574L215.221 288.615C218.979 288.615 222.736 290.956 223.205 294.701C223.675 296.106 223.675 297.978 222.736 299.383L204.889 342.455C188.452 331.687 175.302 315.301 168.727 296.574ZM275.335 354.628C268.76 356.032 262.185 356.969 255.141 356.969C245.278 356.969 234.946 355.096 225.553 352.287L248.566 310.619C250.914 307.81 254.671 306.874 257.958 308.747C259.367 309.683 260.307 310.619 261.716 312.024L284.258 352.755C281.44 353.223 278.623 353.692 275.335 354.628ZM332.631 313.896C325.586 325.133 315.724 334.964 304.453 341.987L286.137 297.978C285.198 294.233 287.076 290.488 290.364 289.083C291.772 288.615 293.181 288.147 294.59 288.147L341.554 296.106C339.206 302.66 336.388 308.747 332.631 313.896Z" fill="url(#paint2_linear_221_2)"/>
</g>
<defs>
<radialGradient id="paint0_radial_221_2" cx="0" cy="0" r="1" gradientUnits="userSpaceOnUse" gradientTransform="translate(256) rotate(90) scale(512)">
<stop stop-color="#769FF4"/>
<stop offset="1" stop-color="#062B77"/>
</radialGradient>
<linearGradient id="paint1_linear_221_2" x1="256" y1="0" x2="256" y2="512" gradientUnits="userSpaceOnUse">
<stop stop-color="#A3C1FF"/>
<stop offset="1" stop-color="#063492"/>
</linearGradient>
<linearGradient id="paint2_linear_221_2" x1="256" y1="105" x2="256" y2="408" gradientUnits="userSpaceOnUse">
<stop stop-color="white"/>
<stop offset="1" stop-color="#97B9FF"/>
</linearGradient>
<clipPath id="clip0_221_2">
<rect width="512" height="512" fill="white"/>
</clipPath>
</defs>
</svg>
