<svg width="512" height="512" viewBox="0 0 512 512" fill="none" xmlns="http://www.w3.org/2000/svg">
<g clip-path="url(#clip0_106_8)">
<rect x="2.5" y="2.5" width="507" height="507" rx="47.5" fill="url(#paint0_radial_106_8)" stroke="url(#paint1_linear_106_8)" stroke-width="5"/>
<g filter="url(#filter0_d_106_8)">
<path d="M240.374 136.389C240.374 136.389 240.265 136.84 240.125 137.602C238.831 137.976 237.537 138.334 236.242 138.754C234.449 139.299 232.687 139.952 230.894 140.59C229.132 141.275 227.339 141.96 225.593 142.738C222.069 144.247 218.576 145.944 215.162 147.858C211.856 149.71 208.597 151.748 205.432 153.958C204.98 153.74 204.621 153.585 204.621 153.585C172.298 141.26 143.592 156.09 143.592 156.09C140.973 190.405 156.503 212.037 159.575 215.958C158.811 218.075 158.093 220.222 157.438 222.386C155.053 230.167 153.26 238.15 152.153 246.398C151.997 247.581 151.856 248.779 151.716 249.977C121.856 264.699 113 294.875 113 294.875C137.932 323.493 166.997 325.268 166.997 325.268C167.028 325.252 167.043 325.221 167.075 325.205C170.77 331.788 175.042 338.06 179.86 343.896C181.872 346.339 183.992 348.704 186.191 350.992C177.1 376.934 187.469 398.519 187.469 398.519C215.224 399.562 233.451 386.396 237.287 383.361C240.047 384.295 242.854 385.12 245.676 385.851C254.205 388.046 262.937 389.337 271.668 389.711C273.851 389.804 276.034 389.851 278.202 389.835H279.262L279.948 389.82L281.32 389.773L282.677 389.711L282.708 389.758C295.774 408.37 318.773 411 318.773 411C335.13 393.788 336.065 376.716 336.065 373.028C336.065 373.028 336.065 372.904 336.065 372.779C336.065 372.468 336.05 372.266 336.05 372.266C336.034 372.001 336.034 371.752 336.003 371.472C339.433 369.075 342.707 366.492 345.81 363.722C352.359 357.808 358.082 351.085 362.822 343.818C363.274 343.133 363.71 342.448 364.131 341.748C382.64 342.806 395.691 330.31 395.691 330.31C392.619 311.059 381.626 301.675 379.334 299.901C379.334 299.901 379.241 299.823 379.1 299.73C378.975 299.637 378.882 299.574 378.882 299.574C378.773 299.496 378.632 299.403 378.477 299.31C378.586 298.143 378.695 296.991 378.757 295.839C378.898 293.77 378.944 291.684 378.96 289.63L378.944 288.089L378.929 287.311V286.922C378.929 286.393 378.913 286.595 378.913 286.393L378.851 285.101L378.757 283.358C378.726 282.752 378.679 282.238 378.632 281.693C378.586 281.164 378.539 280.619 378.477 280.09L378.289 278.487L378.071 276.9C377.759 274.784 377.354 272.683 376.87 270.613C374.937 262.318 371.694 254.444 367.406 247.363C363.118 240.282 357.785 234.011 351.782 228.735C345.779 223.444 339.043 219.195 331.98 216.021C324.917 212.846 317.495 210.807 310.104 209.873C306.408 209.391 302.729 209.204 299.08 209.251L297.723 209.282L297.38 209.298C297.287 209.298 296.866 209.313 296.913 209.313L296.351 209.344L294.995 209.438C294.48 209.469 293.95 209.516 293.498 209.562C291.627 209.749 289.771 209.998 287.931 210.34C280.603 211.71 273.68 214.355 267.583 217.997C261.487 221.639 256.185 226.198 251.866 231.365C247.563 236.516 244.21 242.227 241.903 248.141C239.595 254.055 238.301 260.155 237.942 266.084C237.848 267.563 237.817 269.041 237.848 270.504C237.848 270.862 237.864 271.235 237.88 271.593L237.926 272.776C237.973 273.492 238.036 274.192 238.098 274.893C238.394 277.896 238.94 280.775 239.751 283.561C241.357 289.116 243.945 294.143 247.126 298.407C250.307 302.687 254.111 306.219 258.15 308.974C262.188 311.728 266.507 313.705 270.78 314.965C275.068 316.226 279.324 316.771 283.332 316.755C283.831 316.755 284.329 316.739 284.828 316.724C285.094 316.724 285.359 316.693 285.624 316.693C285.889 316.677 286.154 316.662 286.419 316.646C286.84 316.599 287.276 316.568 287.697 316.522C287.791 316.522 287.931 316.49 288.056 316.475L288.446 316.428C288.711 316.397 288.96 316.35 289.225 316.319C289.756 316.257 290.208 316.148 290.676 316.07C291.143 315.977 291.611 315.884 292.079 315.759C292.999 315.557 293.888 315.277 294.776 315.012C296.523 314.436 298.16 313.736 299.688 312.958C301.216 312.18 302.619 311.293 303.929 310.374C304.303 310.11 304.662 309.83 305.021 309.55C306.424 308.46 306.642 306.406 305.52 305.037C304.537 303.838 302.853 303.527 301.512 304.274C301.185 304.461 300.842 304.632 300.499 304.803C299.329 305.363 298.113 305.893 296.819 306.313C295.525 306.717 294.184 307.06 292.781 307.309C292.079 307.402 291.377 307.511 290.66 307.573C290.301 307.62 289.943 307.636 289.569 307.636C289.21 307.651 288.82 307.682 288.493 307.667C288.15 307.667 287.807 307.651 287.448 307.651C287.011 307.636 286.575 307.604 286.138 307.589C286.138 307.589 285.92 307.589 286.091 307.573L285.951 307.558L285.655 307.527C285.452 307.511 285.265 307.495 285.062 307.464C284.673 307.418 284.283 307.371 283.893 307.309C280.759 306.873 277.578 305.955 274.522 304.57C271.45 303.185 268.519 301.286 265.868 298.905C263.217 296.54 260.91 293.676 259.101 290.439C257.292 287.218 256.029 283.623 255.437 279.857C255.14 277.974 255.016 276.029 255.063 274.13C255.094 273.601 255.109 273.087 255.14 272.558C255.14 272.698 255.156 272.48 255.156 272.465L255.172 272.278L255.203 271.889C255.218 271.625 255.25 271.376 255.281 271.111C255.39 270.084 255.546 269.041 255.733 268.03C257.183 259.828 261.299 251.829 267.661 245.744C269.252 244.235 270.967 242.819 272.791 241.574C274.615 240.329 276.564 239.208 278.591 238.275C280.618 237.341 282.739 236.578 284.906 235.987C287.074 235.411 289.303 235.022 291.564 234.82C292.687 234.726 293.825 234.68 294.964 234.68C295.26 234.68 295.494 234.695 295.728 234.695L296.648 234.726L297.224 234.742C297.458 234.742 297.224 234.742 297.334 234.758L297.567 234.773L298.487 234.835C300.935 235.038 303.383 235.38 305.785 235.925C310.603 236.998 315.28 238.757 319.646 241.169C328.378 245.993 335.816 253.541 340.384 262.645C342.692 267.174 344.282 272.06 345.093 277.102C345.28 278.363 345.436 279.639 345.545 280.915L345.623 281.88L345.67 282.845C345.686 283.172 345.686 283.483 345.701 283.81C345.701 284.121 345.717 284.479 345.717 284.712V285.537L345.701 286.471C345.67 287.093 345.623 288.105 345.592 288.727C345.483 290.112 345.374 291.513 345.187 292.898C345.015 294.268 344.781 295.637 344.532 297.007C344.251 298.36 343.97 299.714 343.612 301.053C342.941 303.745 342.068 306.375 341.055 308.958C339.012 314.125 336.283 319.027 332.993 323.556C326.398 332.597 317.401 339.989 307.172 344.627C302.058 346.93 296.663 348.627 291.112 349.545C288.337 350.012 285.53 350.292 282.723 350.385L282.209 350.401H281.757L280.852 350.416H279.465H278.779C279.168 350.416 278.716 350.416 278.732 350.401L278.451 350.385C276.939 350.354 275.442 350.276 273.945 350.167C267.942 349.716 262.001 348.658 256.248 346.977C250.494 345.312 244.912 343.086 239.626 340.285C229.07 334.652 219.637 326.933 212.246 317.627C208.535 312.989 205.292 308.009 202.61 302.765C199.928 297.52 197.823 292.027 196.264 286.409C194.72 280.791 193.753 275.033 193.379 269.243L193.317 268.154L193.301 267.89V267.656L193.285 267.174L193.254 266.224L193.239 265.991V265.664V264.995L193.223 263.641V263.377C193.223 263.423 193.223 263.423 193.223 263.283V262.754C193.223 262.054 193.254 261.338 193.27 260.638C193.379 257.774 193.613 254.833 193.987 251.892C194.361 248.95 194.845 245.993 195.453 243.052C196.061 240.126 196.778 237.216 197.589 234.368C199.226 228.657 201.269 223.117 203.685 217.888C208.535 207.415 214.896 198.186 222.537 190.747C224.439 188.88 226.419 187.121 228.477 185.472C230.536 183.822 232.672 182.297 234.87 180.865C237.053 179.418 239.314 178.111 241.637 176.897C242.791 176.275 243.976 175.73 245.161 175.154C245.754 174.89 246.362 174.625 246.954 174.36C247.547 174.096 248.155 173.831 248.763 173.598C251.18 172.571 253.675 171.715 256.17 170.906C256.809 170.719 257.433 170.517 258.056 170.33C258.68 170.128 259.335 169.987 259.959 169.801C261.222 169.443 262.516 169.147 263.794 168.82C264.434 168.649 265.088 168.54 265.728 168.4C266.383 168.26 267.022 168.12 267.677 167.995C268.332 167.871 268.987 167.762 269.626 167.638L270.608 167.466L271.59 167.311C272.245 167.217 272.9 167.108 273.555 167.015C274.288 166.891 275.036 166.828 275.769 166.719C276.377 166.642 277.36 166.533 277.968 166.455C278.436 166.408 278.888 166.361 279.355 166.315L280.275 166.221L280.743 166.175L281.289 166.144C282.037 166.097 282.77 166.05 283.519 166.004L284.626 165.926C284.626 165.926 285.031 165.91 284.673 165.91L284.906 165.895L285.374 165.879C286.013 165.848 286.637 165.817 287.276 165.786C289.802 165.708 292.313 165.708 294.792 165.786C299.766 165.988 304.646 166.533 309.387 167.404C318.882 169.163 327.817 172.213 335.894 176.197C343.986 180.15 351.237 185.005 357.536 190.281C357.926 190.607 358.315 190.95 358.705 191.277C359.095 191.619 359.469 191.946 359.844 192.288C360.608 192.957 361.34 193.658 362.073 194.327C362.806 195.012 363.508 195.712 364.225 196.397C364.911 197.097 365.613 197.782 366.283 198.497C368.95 201.314 371.429 204.178 373.658 207.057C378.133 212.799 381.704 218.588 384.558 224.066C384.745 224.409 384.916 224.751 385.088 225.093C385.259 225.436 385.431 225.778 385.587 226.12C385.914 226.79 386.257 227.459 386.553 228.128C386.865 228.797 387.177 229.451 387.473 230.104C387.754 230.758 388.035 231.412 388.315 232.034C389.376 234.602 390.342 237.03 391.138 239.348C392.447 243.068 393.398 246.429 394.147 249.339C394.443 250.507 395.55 251.285 396.751 251.176C397.998 251.067 398.949 250.04 398.981 248.795C399.043 245.667 398.965 241.978 398.606 237.777C398.139 232.579 397.25 226.556 395.488 219.942C393.757 213.328 391.184 206.092 387.442 198.575C383.684 191.074 378.788 183.262 372.427 175.714C369.947 172.758 367.234 169.832 364.303 166.984C368.669 149.648 358.986 134.614 358.986 134.614C342.271 133.572 331.637 139.797 327.692 142.645C327.037 142.364 326.367 142.084 325.696 141.804C322.843 140.653 319.927 139.579 316.918 138.63C313.908 137.68 310.837 136.809 307.702 136.077C304.553 135.346 301.356 134.723 298.098 134.225C297.521 134.148 296.959 134.07 296.382 133.976C289.116 110.726 268.176 101 268.176 101C244.818 115.706 240.374 136.389 240.374 136.389Z" fill="url(#paint2_linear_106_8)"/>
</g>
</g>
<defs>
<filter id="filter0_d_106_8" x="103" y="101" width="306" height="330" filterUnits="userSpaceOnUse" color-interpolation-filters="sRGB">
<feFlood flood-opacity="0" result="BackgroundImageFix"/>
<feColorMatrix in="SourceAlpha" type="matrix" values="0 0 0 0 0 0 0 0 0 0 0 0 0 0 0 0 0 0 127 0" result="hardAlpha"/>
<feOffset dy="10"/>
<feGaussianBlur stdDeviation="5"/>
<feComposite in2="hardAlpha" operator="out"/>
<feColorMatrix type="matrix" values="0 0 0 0 0 0 0 0 0 0 0 0 0 0 0 0 0 0 0.25 0"/>
<feBlend mode="normal" in2="BackgroundImageFix" result="effect1_dropShadow_106_8"/>
<feBlend mode="normal" in="SourceGraphic" in2="effect1_dropShadow_106_8" result="shape"/>
</filter>
<radialGradient id="paint0_radial_106_8" cx="0" cy="0" r="1" gradientUnits="userSpaceOnUse" gradientTransform="translate(256) rotate(90) scale(512)">
<stop stop-color="#575757"/>
<stop offset="1" stop-color="#222222"/>
</radialGradient>
<linearGradient id="paint1_linear_106_8" x1="256" y1="0" x2="256" y2="512" gradientUnits="userSpaceOnUse">
<stop stop-color="#707070"/>
<stop offset="1" stop-color="#0B0B0B"/>
</linearGradient>
<linearGradient id="paint2_linear_106_8" x1="256" y1="101" x2="256" y2="411" gradientUnits="userSpaceOnUse">
<stop stop-color="#F15A29"/>
<stop offset="1" stop-color="#FFF200"/>
</linearGradient>
<clipPath id="clip0_106_8">
<rect width="512" height="512" fill="white"/>
</clipPath>
</defs>
</svg>
