<svg width="512" height="512" viewBox="0 0 512 512" fill="none" xmlns="http://www.w3.org/2000/svg">
<g clip-path="url(#clip0_31_21)">
<rect x="2.5" y="2.5" width="507" height="507" rx="47.5" fill="url(#paint0_radial_31_21)" stroke="url(#paint1_linear_31_21)" stroke-width="5"/>
<g filter="url(#filter0_d_31_21)">
<path d="M298.694 348.363L227.313 314.05C220.281 310.675 217.244 302.125 220.675 295.038L254.988 223.656C258.363 216.625 266.913 213.588 274 217.019C283.675 221.688 289.244 224.331 289.244 224.331L289.188 162.906L298.581 162.85L298.638 228.719C298.638 228.719 330.925 242.331 345.381 251.275C347.463 252.569 351.119 255.1 352.638 259.375C353.819 262.806 353.763 266.744 352.075 270.231L317.763 341.613C314.275 348.756 305.725 351.794 298.694 348.363Z" fill="url(#paint2_linear_31_21)"/>
<path d="M426.269 160.262C423.963 157.956 420.869 158.012 420.869 158.012C420.869 158.012 354.944 161.725 320.8 162.512C313.319 162.681 305.894 162.85 298.525 162.906V228.831C295.431 227.369 292.281 225.85 289.188 224.387C289.188 203.912 289.131 162.962 289.131 162.962C272.819 163.187 238.956 161.725 238.956 161.725C238.956 161.725 159.419 157.731 150.756 156.944C145.244 156.606 138.1 155.762 128.819 157.787C123.925 158.8 109.975 161.95 98.5563 172.919C73.2438 195.475 79.7125 231.362 80.5 236.762C81.4563 243.344 84.3813 261.625 98.3313 277.544C124.094 309.1 179.556 308.369 179.556 308.369C179.556 308.369 186.363 324.625 196.769 339.587C210.831 358.206 225.288 372.719 239.35 374.462C274.788 374.462 345.606 374.406 345.606 374.406C345.606 374.406 352.356 374.462 361.525 368.612C369.4 363.831 376.431 355.45 376.431 355.45C376.431 355.45 383.688 347.687 393.813 329.969C396.906 324.512 399.494 319.225 401.744 314.219C401.744 314.219 432.794 248.35 432.794 184.225C432.175 164.819 427.394 161.387 426.269 160.262ZM146.65 275.069C132.081 270.287 125.894 264.55 125.894 264.55C125.894 264.55 115.15 257.012 109.75 242.162C100.469 217.3 108.963 202.112 108.963 202.112C108.963 202.112 113.688 189.456 130.619 185.237C138.381 183.156 148.056 183.494 148.056 183.494C148.056 183.494 152.05 216.906 156.888 236.481C160.938 252.906 170.838 280.187 170.838 280.187C170.838 280.187 156.156 278.444 146.65 275.069ZM315.569 335.594C315.569 335.594 312.138 343.75 304.544 344.256C301.281 344.481 298.75 343.581 298.75 343.581C298.75 343.581 298.581 343.525 295.769 342.4L232.263 311.462C232.263 311.462 226.131 308.256 225.063 302.687C223.825 298.131 226.581 292.506 226.581 292.506L257.125 229.562C257.125 229.562 259.825 224.106 263.988 222.25C264.325 222.081 265.281 221.687 266.519 221.406C271.075 220.225 276.644 222.981 276.644 222.981L338.913 253.187C338.913 253.187 346 256.394 347.519 262.3C348.588 266.462 347.238 270.175 346.506 271.975C342.963 280.637 315.569 335.594 315.569 335.594Z" fill="url(#paint3_linear_31_21)"/>
<path d="M259.825 289.806C255.212 289.863 251.162 293.069 250.094 297.569C249.025 302.069 251.219 306.738 255.212 308.819C259.544 311.069 265.056 309.831 267.981 305.781C270.85 301.788 270.4 296.275 266.969 292.788L280.469 265.169C281.312 265.225 282.55 265.281 283.956 264.887C286.262 264.381 287.95 262.863 287.95 262.863C290.312 263.875 292.787 265 295.375 266.294C298.075 267.644 300.606 269.05 302.912 270.4C303.419 270.681 303.925 271.019 304.487 271.469C305.387 272.2 306.4 273.213 307.131 274.563C308.2 277.656 306.062 282.944 306.062 282.944C304.769 287.219 295.712 305.781 295.712 305.781C291.156 305.669 287.106 308.594 285.756 312.813C284.294 317.369 286.375 322.544 290.762 324.794C295.15 327.044 300.55 325.75 303.419 321.813C306.231 317.988 306.006 312.644 302.8 309.1C303.869 307.019 304.881 304.938 305.95 302.744C308.762 296.894 313.544 285.644 313.544 285.644C314.05 284.688 316.75 279.85 315.062 273.663C313.656 267.25 307.975 264.269 307.975 264.269C301.112 259.825 291.55 255.719 291.55 255.719C291.55 255.719 291.55 253.412 290.931 251.725C290.312 249.981 289.356 248.856 288.737 248.181C291.381 242.725 294.025 237.325 296.669 231.869C294.362 230.744 292.112 229.619 289.806 228.438C287.106 233.95 284.35 239.519 281.65 245.031C277.881 244.975 274.394 247 272.594 250.319C270.681 253.862 271.075 258.25 273.662 261.456L259.825 289.806Z" fill="#609926"/>
</g>
</g>
<defs>
<filter id="filter0_d_31_21" x="66" y="76" width="380" height="380" filterUnits="userSpaceOnUse" color-interpolation-filters="sRGB">
<feFlood flood-opacity="0" result="BackgroundImageFix"/>
<feColorMatrix in="SourceAlpha" type="matrix" values="0 0 0 0 0 0 0 0 0 0 0 0 0 0 0 0 0 0 127 0" result="hardAlpha"/>
<feOffset dy="10"/>
<feGaussianBlur stdDeviation="5"/>
<feComposite in2="hardAlpha" operator="out"/>
<feColorMatrix type="matrix" values="0 0 0 0 0 0 0 0 0 0 0 0 0 0 0 0 0 0 0.25 0"/>
<feBlend mode="normal" in2="BackgroundImageFix" result="effect1_dropShadow_31_21"/>
<feBlend mode="normal" in="SourceGraphic" in2="effect1_dropShadow_31_21" result="shape"/>
</filter>
<radialGradient id="paint0_radial_31_21" cx="0" cy="0" r="1" gradientUnits="userSpaceOnUse" gradientTransform="translate(256) rotate(90) scale(512)">
<stop stop-color="#575757"/>
<stop offset="1" stop-color="#222222"/>
</radialGradient>
<linearGradient id="paint1_linear_31_21" x1="256" y1="0" x2="256" y2="512" gradientUnits="userSpaceOnUse">
<stop stop-color="#707070"/>
<stop offset="1" stop-color="#0B0B0B"/>
</linearGradient>
<linearGradient id="paint2_linear_31_21" x1="286.352" y1="162.85" x2="286.352" y2="349.775" gradientUnits="userSpaceOnUse">
<stop stop-color="white"/>
<stop offset="1" stop-color="#BEC7B6"/>
</linearGradient>
<linearGradient id="paint3_linear_31_21" x1="255.991" y1="156.479" x2="255.991" y2="374.462" gradientUnits="userSpaceOnUse">
<stop stop-color="#7DCE2B"/>
<stop offset="1" stop-color="#4F702D"/>
</linearGradient>
<clipPath id="clip0_31_21">
<rect width="512" height="512" fill="white"/>
</clipPath>
</defs>
</svg>
