<svg width="512" height="512" viewBox="0 0 512 512" fill="none" xmlns="http://www.w3.org/2000/svg">
<g clip-path="url(#clip0_1_28)">
<rect x="2.5" y="2.5" width="507" height="507" rx="47.5" fill="url(#paint0_radial_1_28)" stroke="url(#paint1_linear_1_28)" stroke-width="5"/>
<g filter="url(#filter0_i_1_28)">
<path d="M401.406 298.147H353.896L303.591 212.008C314.77 209.756 323.154 199.622 323.154 187.799V122.772C323.154 108.979 312.255 98 298.561 98H214.719C201.025 98 190.125 108.979 190.125 122.772V187.799C190.125 199.903 198.509 209.756 209.409 212.008L159.104 298.429H111.594C97.8994 298.429 87 309.407 87 323.201V388.228C87 402.021 97.8994 413 111.594 413H195.435C209.129 413 220.029 402.021 220.029 388.228V323.201C220.029 309.407 209.129 298.429 195.435 298.429H187.331L237.077 212.853H275.923L325.949 298.429H317.565C303.871 298.429 292.971 309.407 292.971 323.201V388.228C292.971 402.021 303.871 413 317.565 413H401.406C415.101 413 426 402.021 426 388.228V323.201C426 309.407 415.101 298.147 401.406 298.147Z" fill="url(#paint2_linear_1_28)"/>
</g>
</g>
<defs>
<filter id="filter0_i_1_28" x="87" y="98" width="339" height="325" filterUnits="userSpaceOnUse" color-interpolation-filters="sRGB">
<feFlood flood-opacity="0" result="BackgroundImageFix"/>
<feBlend mode="normal" in="SourceGraphic" in2="BackgroundImageFix" result="shape"/>
<feColorMatrix in="SourceAlpha" type="matrix" values="0 0 0 0 0 0 0 0 0 0 0 0 0 0 0 0 0 0 127 0" result="hardAlpha"/>
<feOffset dy="10"/>
<feGaussianBlur stdDeviation="5"/>
<feComposite in2="hardAlpha" operator="arithmetic" k2="-1" k3="1"/>
<feColorMatrix type="matrix" values="0 0 0 0 0 0 0 0 0 0 0 0 0 0 0 0 0 0 0.25 0"/>
<feBlend mode="normal" in2="shape" result="effect1_innerShadow_1_28"/>
</filter>
<radialGradient id="paint0_radial_1_28" cx="0" cy="0" r="1" gradientUnits="userSpaceOnUse" gradientTransform="translate(256) rotate(90) scale(512)">
<stop stop-color="white"/>
<stop offset="1" stop-color="#959595"/>
</radialGradient>
<linearGradient id="paint1_linear_1_28" x1="256" y1="0" x2="256" y2="512" gradientUnits="userSpaceOnUse">
<stop stop-color="white"/>
<stop offset="1" stop-color="#5E5E5E"/>
</linearGradient>
<linearGradient id="paint2_linear_1_28" x1="256.5" y1="98" x2="256.5" y2="413" gradientUnits="userSpaceOnUse">
<stop stop-color="#EDB671"/>
<stop offset="1" stop-color="#A45E07"/>
</linearGradient>
<clipPath id="clip0_1_28">
<rect width="512" height="512" fill="white"/>
</clipPath>
</defs>
</svg>
