<svg width="512" height="512" viewBox="0 0 512 512" fill="none" xmlns="http://www.w3.org/2000/svg">
<g clip-path="url(#clip0_322_8)">
<rect x="2.5" y="2.5" width="507" height="507" rx="47.5" fill="url(#paint0_radial_322_8)" stroke="url(#paint1_linear_322_8)" stroke-width="5"/>
<g filter="url(#filter0_d_322_8)">
<path d="M84.5427 256.156V169.997C84.4004 166.215 85.3619 162.473 87.3111 159.224C89.2602 155.974 92.1136 153.356 95.5262 151.686C108.792 143.879 122.2 136.214 135.609 128.549L180.399 102.857L209.64 85.5401L244.588 65.526C247.802 63.4774 251.54 62.3887 255.357 62.3887C259.175 62.3887 262.912 63.4774 266.127 65.526L325.894 99.8764L380.811 131.53C392.793 138.343 404.633 145.015 416.472 151.97C419.598 153.711 422.182 156.274 423.943 159.378C425.704 162.482 426.574 166.008 426.457 169.571V342.6C426.59 346.166 425.727 349.698 423.964 352.805C422.202 355.912 419.608 358.472 416.472 360.201L376.817 383.054L340.872 403.778L286.81 435.006L266.697 446.361C263.352 448.484 259.467 449.611 255.5 449.611C251.533 449.611 247.648 448.484 244.302 446.361L195.376 417.972L150.729 392.139L106.224 366.731C102.373 364.46 98.3791 362.33 94.5277 359.917C91.5495 358.058 89.1129 355.455 87.4611 352.366C85.8092 349.278 84.9997 345.813 85.1133 342.316L84.5427 256.156ZM121.345 256.156V321.025C121.194 324.773 122.12 328.487 124.015 331.73C125.91 334.973 128.695 337.611 132.043 339.335L192.381 374.112L244.873 403.778C248.116 405.822 251.875 406.908 255.714 406.908C259.553 406.908 263.312 405.822 266.555 403.778L337.163 363.04C351.427 355.233 364.408 347.284 378.101 339.619C381.92 337.741 385.104 334.791 387.258 331.134C389.413 327.476 390.444 323.271 390.226 319.038V191.146C390.422 187.329 389.553 183.531 387.715 180.175C385.878 176.818 383.143 174.032 379.813 172.126L360.556 162.474L321.9 140.33L266.697 107.683C264.757 106.602 262.699 105.745 260.564 105.128C257.781 104.539 254.908 104.512 252.115 105.049C249.322 105.585 246.665 106.674 244.302 108.251L193.664 137.35C173.694 148.847 153.867 160.486 133.754 171.7C129.851 173.64 126.607 176.68 124.426 180.44C122.245 184.2 121.223 188.516 121.487 192.85C121.487 213.999 121.345 235.149 121.345 256.298V256.156Z" fill="url(#paint2_linear_322_8)"/>
<path d="M227.185 355.516C224.195 355.524 221.278 354.596 218.846 352.864C216.415 351.132 214.591 348.683 213.634 345.864L188.387 270.208H106.367C102.584 270.208 98.9559 268.712 96.2808 266.051C93.6057 263.389 92.1029 259.778 92.1029 256.014C92.1029 252.249 93.6057 248.639 96.2808 245.977C98.9559 243.315 102.584 241.819 106.367 241.819H198.657C201.665 241.821 204.595 242.77 207.029 244.529C209.463 246.288 211.276 248.768 212.208 251.613L227.185 296.468L270.691 166.305C271.63 163.465 273.445 160.993 275.878 159.24C278.311 157.487 281.239 156.543 284.243 156.543C287.247 156.543 290.174 157.487 292.607 159.24C295.041 160.993 296.856 163.465 297.794 166.305L323.755 241.819H404.633C408.416 241.819 412.044 243.315 414.719 245.977C417.394 248.639 418.897 252.249 418.897 256.014C418.897 259.778 417.394 263.389 414.719 266.051C412.044 268.712 408.416 270.208 404.633 270.208H312.914C309.923 270.216 307.006 269.288 304.574 267.556C302.143 265.824 300.32 263.375 299.363 260.556L284.243 215.702L240.737 345.864C239.78 348.683 237.956 351.132 235.525 352.864C233.093 354.596 230.176 355.524 227.185 355.516Z" fill="url(#paint3_linear_322_8)"/>
</g>
</g>
<defs>
<filter id="filter0_d_322_8" x="46" y="34" width="419" height="464" filterUnits="userSpaceOnUse" color-interpolation-filters="sRGB">
<feFlood flood-opacity="0" result="BackgroundImageFix"/>
<feColorMatrix in="SourceAlpha" type="matrix" values="0 0 0 0 0 0 0 0 0 0 0 0 0 0 0 0 0 0 127 0" result="hardAlpha"/>
<feOffset dy="10"/>
<feGaussianBlur stdDeviation="5"/>
<feComposite in2="hardAlpha" operator="out"/>
<feColorMatrix type="matrix" values="0 0 0 0 0 0 0 0 0 0 0 0 0 0 0 0 0 0 0.25 0"/>
<feBlend mode="normal" in2="BackgroundImageFix" result="effect1_dropShadow_322_8"/>
<feBlend mode="normal" in="SourceGraphic" in2="effect1_dropShadow_322_8" result="shape"/>
</filter>
<radialGradient id="paint0_radial_322_8" cx="0" cy="0" r="1" gradientUnits="userSpaceOnUse" gradientTransform="translate(256) rotate(90) scale(512)">
<stop stop-color="#575757"/>
<stop offset="1" stop-color="#222222"/>
</radialGradient>
<linearGradient id="paint1_linear_322_8" x1="256" y1="0" x2="256" y2="512" gradientUnits="userSpaceOnUse">
<stop stop-color="#707070"/>
<stop offset="1" stop-color="#0B0B0B"/>
</linearGradient>
<linearGradient id="paint2_linear_322_8" x1="255.5" y1="62.3887" x2="255.5" y2="449.611" gradientUnits="userSpaceOnUse">
<stop stop-color="#2893FC"/>
<stop offset="1" stop-color="#006CD7"/>
</linearGradient>
<linearGradient id="paint3_linear_322_8" x1="255.5" y1="156.543" x2="255.5" y2="355.516" gradientUnits="userSpaceOnUse">
<stop stop-color="#2893FC"/>
<stop offset="1" stop-color="#006CD7"/>
</linearGradient>
<clipPath id="clip0_322_8">
<rect width="512" height="512" fill="white"/>
</clipPath>
</defs>
</svg>
