<svg width="512" height="512" viewBox="0 0 512 512" fill="none" xmlns="http://www.w3.org/2000/svg">
<g clip-path="url(#clip0_322_2)">
<rect x="2.5" y="2.5" width="507" height="507" rx="47.5" fill="url(#paint0_radial_322_2)" stroke="url(#paint1_linear_322_2)" stroke-width="5"/>
<g filter="url(#filter0_i_322_2)">
<path d="M85.5428 256.156V169.997C85.4004 166.215 86.3619 162.473 88.3111 159.224C90.2603 155.974 93.1137 153.356 96.5263 151.686C109.792 143.879 123.2 136.214 136.609 128.549L181.399 102.857L210.64 85.5401L245.588 65.526C248.803 63.4774 252.54 62.3887 256.357 62.3887C260.175 62.3887 263.912 63.4774 267.127 65.526L326.894 99.8764L381.812 131.53C393.794 138.343 405.633 145.015 417.472 151.97C420.598 153.711 423.182 156.274 424.943 159.378C426.704 162.482 427.574 166.008 427.457 169.571V342.6C427.59 346.166 426.727 349.698 424.965 352.805C423.202 355.912 420.609 358.472 417.472 360.201L377.818 383.054L341.872 403.778L287.81 435.006L267.697 446.361C264.352 448.484 260.467 449.611 256.5 449.611C252.533 449.611 248.648 448.484 245.303 446.361L196.376 417.972L151.729 392.139L107.224 366.731C103.373 364.46 99.3791 362.33 95.5278 359.917C92.5495 358.058 90.113 355.455 88.4611 352.366C86.8093 349.278 85.9998 345.813 86.1134 342.316L85.5428 256.156ZM122.345 256.156V321.025C122.194 324.773 123.12 328.487 125.015 331.73C126.91 334.973 129.695 337.611 133.043 339.335L193.381 374.112L245.873 403.778C249.116 405.822 252.875 406.908 256.714 406.908C260.553 406.908 264.312 405.822 267.555 403.778L338.163 363.04C352.427 355.233 365.408 347.284 379.101 339.619C382.92 337.741 386.104 334.791 388.258 331.134C390.413 327.476 391.444 323.271 391.226 319.038V191.146C391.422 187.329 390.553 183.531 388.715 180.175C386.878 176.818 384.143 174.032 380.813 172.126L361.556 162.474L322.9 140.33L267.697 107.683C265.757 106.602 263.699 105.745 261.564 105.128C258.781 104.539 255.908 104.512 253.115 105.049C250.322 105.585 247.665 106.674 245.303 108.251L194.664 137.35C174.694 148.847 154.867 160.486 134.755 171.7C130.851 173.64 127.607 176.68 125.426 180.44C123.245 184.2 122.223 188.516 122.487 192.85C122.487 213.999 122.345 235.149 122.345 256.298V256.156Z" fill="#1976D2"/>
<path d="M228.185 355.516C225.195 355.524 222.278 354.596 219.846 352.864C217.414 351.132 215.591 348.683 214.634 345.864L189.387 270.208H107.367C103.584 270.208 99.9558 268.712 97.2808 266.051C94.6057 263.389 93.1028 259.778 93.1028 256.014C93.1028 252.249 94.6057 248.639 97.2808 245.977C99.9558 243.315 103.584 241.819 107.367 241.819H199.657C202.665 241.821 205.595 242.77 208.029 244.529C210.463 246.288 212.275 248.768 213.208 251.613L228.185 296.468L271.691 166.305C272.629 163.465 274.445 160.993 276.878 159.24C279.311 157.487 282.238 156.543 285.242 156.543C288.247 156.543 291.174 157.487 293.607 159.24C296.04 160.993 297.856 163.465 298.794 166.305L324.755 241.819H405.633C409.416 241.819 413.044 243.315 415.719 245.977C418.394 248.639 419.897 252.249 419.897 256.014C419.897 259.778 418.394 263.389 415.719 266.051C413.044 268.712 409.416 270.208 405.633 270.208H313.914C310.923 270.216 308.006 269.288 305.574 267.556C303.143 265.824 301.32 263.375 300.363 260.556L285.242 215.702L241.736 345.864C240.78 348.683 238.956 351.132 236.525 352.864C234.093 354.596 231.176 355.524 228.185 355.516Z" fill="#1976D2"/>
</g>
</g>
<defs>
<filter id="filter0_i_322_2" x="57" y="34" width="399" height="454" filterUnits="userSpaceOnUse" color-interpolation-filters="sRGB">
<feFlood flood-opacity="0" result="BackgroundImageFix"/>
<feBlend mode="normal" in="SourceGraphic" in2="BackgroundImageFix" result="shape"/>
<feColorMatrix in="SourceAlpha" type="matrix" values="0 0 0 0 0 0 0 0 0 0 0 0 0 0 0 0 0 0 127 0" result="hardAlpha"/>
<feOffset dy="10"/>
<feGaussianBlur stdDeviation="5"/>
<feComposite in2="hardAlpha" operator="arithmetic" k2="-1" k3="1"/>
<feColorMatrix type="matrix" values="0 0 0 0 0 0 0 0 0 0 0 0 0 0 0 0 0 0 0.25 0"/>
<feBlend mode="normal" in2="shape" result="effect1_innerShadow_322_2"/>
</filter>
<radialGradient id="paint0_radial_322_2" cx="0" cy="0" r="1" gradientUnits="userSpaceOnUse" gradientTransform="translate(256) rotate(90) scale(512)">
<stop stop-color="white"/>
<stop offset="1" stop-color="#959595"/>
</radialGradient>
<linearGradient id="paint1_linear_322_2" x1="256" y1="0" x2="256" y2="512" gradientUnits="userSpaceOnUse">
<stop stop-color="white"/>
<stop offset="1" stop-color="#5E5E5E"/>
</linearGradient>
<clipPath id="clip0_322_2">
<rect width="512" height="512" fill="white"/>
</clipPath>
</defs>
</svg>
