<svg width="512" height="512" viewBox="0 0 512 512" fill="none" xmlns="http://www.w3.org/2000/svg">
<g clip-path="url(#clip0_306_67)">
<rect x="2.5" y="2.5" width="507" height="507" rx="47.5" fill="url(#paint0_radial_306_67)" stroke="url(#paint1_linear_306_67)" stroke-width="5"/>
<g clip-path="url(#clip1_306_67)">
<mask id="mask0_306_67" style="mask-type:alpha" maskUnits="userSpaceOnUse" x="113" y="113" width="286" height="286">
<path fill-rule="evenodd" clip-rule="evenodd" d="M315.808 397.047C320.313 398.802 325.449 398.689 329.995 396.501L388.878 368.168C395.065 365.191 399 358.929 399 352.059V159.942C399 153.072 395.065 146.81 388.878 143.833L329.995 115.499C324.029 112.628 317.046 113.331 311.809 117.138C311.061 117.682 310.348 118.289 309.679 118.958L196.956 221.798L147.855 184.527C143.285 181.058 136.891 181.342 132.646 185.204L116.898 199.529C111.706 204.252 111.7 212.421 116.885 217.152L159.467 256L116.885 294.848C111.7 299.579 111.706 307.748 116.898 312.471L132.646 326.796C136.891 330.658 143.285 330.942 147.855 327.473L196.956 290.202L309.679 393.042C311.463 394.826 313.556 396.17 315.808 397.047ZM327.543 191.075L242.012 256L327.543 320.925V191.075Z" fill="white"/>
</mask>
<g mask="url(#mask0_306_67)">
<path d="M388.88 143.877L329.951 115.504C323.13 112.22 314.978 113.606 309.625 118.959L116.714 294.848C111.525 299.579 111.531 307.748 116.727 312.472L132.484 326.797C136.732 330.658 143.129 330.943 147.703 327.473L380.012 151.238C387.806 145.326 399 150.884 399 160.667V159.983C399 153.116 395.066 146.856 388.88 143.877Z" fill="#0065A9"/>
<g filter="url(#filter0_d_306_67)">
<path d="M388.88 368.123L329.951 396.496C323.13 399.781 314.978 398.395 309.625 393.042L116.714 217.152C111.525 212.421 111.531 204.252 116.727 199.529L132.484 185.204C136.732 181.342 143.129 181.058 147.703 184.527L380.012 360.762C387.806 366.675 399 361.116 399 351.334V352.018C399 358.884 395.066 365.144 388.88 368.123Z" fill="#007ACC"/>
</g>
<g filter="url(#filter1_d_306_67)">
<path d="M329.953 396.501C323.13 399.784 314.979 398.395 309.625 393.042C316.221 399.638 327.5 394.966 327.5 385.638V126.362C327.5 117.034 316.221 112.362 309.625 118.958C314.979 113.605 323.13 112.217 329.953 115.499L388.872 143.833C395.063 146.81 399 153.072 399 159.942V352.059C399 358.929 395.063 365.191 388.872 368.168L329.953 396.501Z" fill="#1F9CF0"/>
</g>
<g style="mix-blend-mode:overlay" opacity="0.25">
<path fill-rule="evenodd" clip-rule="evenodd" d="M315.634 397.047C320.139 398.801 325.275 398.689 329.821 396.501L388.704 368.168C394.891 365.191 398.826 358.929 398.826 352.059V159.942C398.826 153.072 394.892 146.81 388.704 143.833L329.821 115.499C323.855 112.628 316.872 113.331 311.635 117.138C310.887 117.682 310.174 118.289 309.505 118.958L196.782 221.798L147.682 184.527C143.111 181.058 136.718 181.342 132.472 185.204L116.724 199.529C111.532 204.252 111.526 212.421 116.712 217.152L159.293 256L116.712 294.848C111.526 299.579 111.532 307.748 116.724 312.471L132.472 326.796C136.718 330.658 143.111 330.942 147.682 327.473L196.782 290.202L309.505 393.042C311.289 394.826 313.382 396.17 315.634 397.047ZM327.37 191.075L241.838 256L327.37 320.925V191.075Z" fill="url(#paint2_linear_306_67)"/>
</g>
</g>
</g>
</g>
<defs>
<filter id="filter0_d_306_67" x="104.493" y="173.771" width="302.841" height="232.823" filterUnits="userSpaceOnUse" color-interpolation-filters="sRGB">
<feFlood flood-opacity="0" result="BackgroundImageFix"/>
<feColorMatrix in="SourceAlpha" type="matrix" values="0 0 0 0 0 0 0 0 0 0 0 0 0 0 0 0 0 0 127 0" result="hardAlpha"/>
<feOffset/>
<feGaussianBlur stdDeviation="4.16667"/>
<feColorMatrix type="matrix" values="0 0 0 0 0 0 0 0 0 0 0 0 0 0 0 0 0 0 0.25 0"/>
<feBlend mode="overlay" in2="BackgroundImageFix" result="effect1_dropShadow_306_67"/>
<feBlend mode="normal" in="SourceGraphic" in2="effect1_dropShadow_306_67" result="shape"/>
</filter>
<filter id="filter1_d_306_67" x="301.292" y="105.404" width="106.042" height="301.193" filterUnits="userSpaceOnUse" color-interpolation-filters="sRGB">
<feFlood flood-opacity="0" result="BackgroundImageFix"/>
<feColorMatrix in="SourceAlpha" type="matrix" values="0 0 0 0 0 0 0 0 0 0 0 0 0 0 0 0 0 0 127 0" result="hardAlpha"/>
<feOffset/>
<feGaussianBlur stdDeviation="4.16667"/>
<feColorMatrix type="matrix" values="0 0 0 0 0 0 0 0 0 0 0 0 0 0 0 0 0 0 0.25 0"/>
<feBlend mode="overlay" in2="BackgroundImageFix" result="effect1_dropShadow_306_67"/>
<feBlend mode="normal" in="SourceGraphic" in2="effect1_dropShadow_306_67" result="shape"/>
</filter>
<radialGradient id="paint0_radial_306_67" cx="0" cy="0" r="1" gradientUnits="userSpaceOnUse" gradientTransform="translate(256) rotate(90) scale(512)">
<stop stop-color="#414141"/>
<stop offset="1" stop-color="#0B0B0B"/>
</radialGradient>
<linearGradient id="paint1_linear_306_67" x1="256" y1="0" x2="256" y2="512" gradientUnits="userSpaceOnUse">
<stop stop-color="#9F9F9F"/>
<stop offset="1"/>
</linearGradient>
<linearGradient id="paint2_linear_306_67" x1="255.826" y1="113.737" x2="255.826" y2="398.263" gradientUnits="userSpaceOnUse">
<stop stop-color="white"/>
<stop offset="1" stop-color="white" stop-opacity="0"/>
</linearGradient>
<clipPath id="clip0_306_67">
<rect width="512" height="512" fill="white"/>
</clipPath>
<clipPath id="clip1_306_67">
<rect width="286" height="286" fill="white" transform="translate(113 113)"/>
</clipPath>
</defs>
</svg>
