<svg width="512" height="512" viewBox="0 0 512 512" fill="none" xmlns="http://www.w3.org/2000/svg">
<g clip-path="url(#clip0_37_5)">
<rect x="2.5" y="2.5" width="507" height="507" rx="47.5" fill="url(#paint0_radial_37_5)" stroke="url(#paint1_linear_37_5)" stroke-width="5"/>
<path d="M186 362.662L216.895 299.485M211.746 220.691L195.358 130.911C195.03 129.118 195.704 127.29 197.116 126.138L247.391 85.1244C249.311 83.5579 252.089 83.6343 253.92 85.304L297.985 125.48C299.626 126.977 300.083 129.377 299.108 131.372L250.733 230.292M250.733 230.292H210.466C208.95 230.292 207.516 230.979 206.567 232.162L200.983 239.118C199.9 240.467 199.591 242.28 200.167 243.912L202.477 250.457C203.183 252.456 205.072 253.793 207.192 253.793H216.895M250.733 230.292L239.24 253.793M239.24 253.793H216.895M239.24 253.793L216.895 299.485M216.895 253.793V299.485" stroke="#F5F4FF" stroke-width="15" stroke-linecap="round" stroke-linejoin="round"/>
<path d="M326.5 149.338L261.767 281.708M293.405 217.013L315.844 372.689C316.069 374.249 315.545 375.824 314.431 376.938L265.143 426.226C263.254 428.115 260.213 428.185 258.239 426.385L214.515 386.52C212.874 385.023 212.417 382.623 213.392 380.628L261.767 281.708M261.767 281.708L261.767 375.168" stroke="#F5F4FF" stroke-width="15" stroke-linecap="round" stroke-linejoin="round"/>
<circle cx="246.319" cy="125.063" r="6.62042" stroke="#F5F4FF" stroke-width="15" stroke-linejoin="round"/>
</g>
<defs>
<radialGradient id="paint0_radial_37_5" cx="0" cy="0" r="1" gradientUnits="userSpaceOnUse" gradientTransform="translate(256) rotate(90) scale(512)">
<stop stop-color="#5654A5"/>
<stop offset="1" stop-color="#131220"/>
</radialGradient>
<linearGradient id="paint1_linear_37_5" x1="256" y1="0" x2="256" y2="512" gradientUnits="userSpaceOnUse">
<stop stop-color="#7E7AEE"/>
<stop offset="1" stop-color="#282741"/>
</linearGradient>
<clipPath id="clip0_37_5">
<rect width="512" height="512" fill="white"/>
</clipPath>
</defs>
</svg>
