<svg width="512" height="512" viewBox="0 0 512 512" fill="none" xmlns="http://www.w3.org/2000/svg">
<g clip-path="url(#clip0_1_14)">
<rect x="2.5" y="2.5" width="507" height="507" rx="47.5" fill="url(#paint0_radial_1_14)" stroke="url(#paint1_linear_1_14)" stroke-width="5"/>
<g filter="url(#filter0_i_1_14)">
<path d="M126.021 174.275C124.169 175.452 122.646 177.079 121.593 179.004C120.54 180.929 119.992 183.09 120 185.284V351.625C120.029 356.606 121.465 361.478 124.144 365.678C126.822 369.878 130.634 373.235 135.138 375.363L237.663 423.872C243.571 426.592 249.997 428 256.5 428C263.003 428 269.429 426.592 275.336 423.872L377.862 375.363C382.366 373.235 386.178 369.878 388.856 365.678C391.535 361.478 392.971 356.606 393 351.625V185.284C393.011 183.07 392.447 180.89 391.361 178.96C390.275 177.03 388.706 175.415 386.807 174.275L348.446 154.493V137.291C348.443 134.127 347.548 131.027 345.866 128.347L322.987 91.1908C321.837 89.3006 320.221 87.7381 318.293 86.6539C316.364 85.5696 314.189 85 311.977 85C309.765 85 307.59 85.5696 305.662 86.6539C303.734 87.7381 302.117 89.3006 300.968 91.1908L278.863 127.486L267.509 109.081C266.332 107.229 264.705 105.705 262.78 104.653C260.855 103.6 258.694 103.052 256.5 103.06C254.301 103.125 252.151 103.723 250.233 104.801C248.316 105.88 246.688 107.407 245.491 109.253L234.309 127.486L211.774 91.1908C210.625 89.3006 209.008 87.7381 207.08 86.6539C205.152 85.5696 202.977 85 200.765 85C198.552 85 196.378 85.5696 194.449 86.6539C192.521 87.7381 190.904 89.3006 189.755 91.1908L167.134 128.347C165.452 131.027 164.557 134.127 164.554 137.291V154.493L126.021 174.275ZM348.446 174.103L360.488 180.124L348.446 185.8V174.103ZM306.472 115.101H317.482L326.083 129.035H297.871L306.472 115.101ZM331.244 146.236V193.885L320.75 198.873V146.236H331.244ZM292.883 146.236H303.548V206.958L292.883 212.119V146.236ZM195.346 115.101H206.355L214.957 129.035H186.745L195.346 115.101ZM220.117 146.236V211.947L209.624 206.958V146.236H220.117ZM181.756 146.236H192.422V198.873L181.756 193.885V146.236ZM164.554 174.103V185.8L152.512 180.124L164.554 174.103ZM142.363 359.709C140.824 358.991 139.521 357.849 138.607 356.417C137.694 354.985 137.206 353.323 137.202 351.625V191.821L247.813 244.114V409.078L142.363 359.709ZM247.813 225.02L237.319 220.032V164.298H247.813V225.02ZM242.308 147.096L251.081 132.991H261.747L270.52 147.096H242.308ZM275.68 164.298V220.204L265.015 225.192V164.298H275.68ZM265.101 409.25V244.286L375.884 191.821V351.625C375.882 353.346 375.376 355.029 374.428 356.466C373.481 357.903 372.133 359.03 370.551 359.709L265.101 409.25Z" fill="url(#paint2_linear_1_14)"/>
</g>
</g>
<defs>
<filter id="filter0_i_1_14" x="120" y="85" width="273" height="353" filterUnits="userSpaceOnUse" color-interpolation-filters="sRGB">
<feFlood flood-opacity="0" result="BackgroundImageFix"/>
<feBlend mode="normal" in="SourceGraphic" in2="BackgroundImageFix" result="shape"/>
<feColorMatrix in="SourceAlpha" type="matrix" values="0 0 0 0 0 0 0 0 0 0 0 0 0 0 0 0 0 0 127 0" result="hardAlpha"/>
<feOffset dy="10"/>
<feGaussianBlur stdDeviation="5"/>
<feComposite in2="hardAlpha" operator="arithmetic" k2="-1" k3="1"/>
<feColorMatrix type="matrix" values="0 0 0 0 0 0 0 0 0 0 0 0 0 0 0 0 0 0 0.25 0"/>
<feBlend mode="normal" in2="shape" result="effect1_innerShadow_1_14"/>
</filter>
<radialGradient id="paint0_radial_1_14" cx="0" cy="0" r="1" gradientUnits="userSpaceOnUse" gradientTransform="translate(256) rotate(90) scale(512)">
<stop stop-color="white"/>
<stop offset="1" stop-color="#959595"/>
</radialGradient>
<linearGradient id="paint1_linear_1_14" x1="256" y1="0" x2="256" y2="512" gradientUnits="userSpaceOnUse">
<stop stop-color="white"/>
<stop offset="1" stop-color="#5E5E5E"/>
</linearGradient>
<linearGradient id="paint2_linear_1_14" x1="256.5" y1="85" x2="256.5" y2="428" gradientUnits="userSpaceOnUse">
<stop stop-color="#AE6DFC"/>
<stop offset="1" stop-color="#A8368C"/>
</linearGradient>
<clipPath id="clip0_1_14">
<rect width="512" height="512" fill="white"/>
</clipPath>
</defs>
</svg>
