<svg width="512" height="512" viewBox="0 0 512 512" fill="none" xmlns="http://www.w3.org/2000/svg">
<g clip-path="url(#clip0_1_17)">
<rect x="2.5" y="2.5" width="507" height="507" rx="47.5" fill="url(#paint0_radial_1_17)" stroke="url(#paint1_linear_1_17)" stroke-width="5"/>
<path d="M125.021 174.275C123.169 175.452 121.646 177.079 120.593 179.004C119.54 180.929 118.992 183.09 119 185.284V351.625C119.029 356.606 120.465 361.478 123.144 365.678C125.822 369.878 129.634 373.235 134.138 375.363L236.663 423.872C242.571 426.592 248.997 428 255.5 428C262.003 428 268.429 426.592 274.336 423.872L376.862 375.363C381.366 373.235 385.178 369.878 387.856 365.678C390.535 361.478 391.971 356.606 392 351.625V185.284C392.011 183.07 391.447 180.89 390.361 178.96C389.275 177.03 387.706 175.415 385.807 174.275L347.446 154.493V137.291C347.443 134.127 346.548 131.027 344.866 128.347L321.987 91.1908C320.837 89.3006 319.221 87.7381 317.293 86.6539C315.364 85.5696 313.189 85 310.977 85C308.765 85 306.59 85.5696 304.662 86.6539C302.734 87.7381 301.117 89.3006 299.968 91.1908L277.863 127.486L266.509 109.081C265.332 107.229 263.705 105.705 261.78 104.653C259.855 103.6 257.694 103.052 255.5 103.06C253.301 103.125 251.151 103.723 249.233 104.801C247.316 105.88 245.688 107.407 244.491 109.253L233.309 127.486L210.774 91.1908C209.625 89.3006 208.008 87.7381 206.08 86.6539C204.152 85.5696 201.977 85 199.765 85C197.552 85 195.378 85.5696 193.449 86.6539C191.521 87.7381 189.904 89.3006 188.755 91.1908L166.134 128.347C164.452 131.027 163.557 134.127 163.554 137.291V154.493L125.021 174.275ZM347.446 174.103L359.488 180.124L347.446 185.8V174.103ZM305.472 115.101H316.482L325.083 129.035H296.871L305.472 115.101ZM330.244 146.236V193.885L319.75 198.873V146.236H330.244ZM291.883 146.236H302.548V206.958L291.883 212.119V146.236ZM194.346 115.101H205.355L213.957 129.035H185.745L194.346 115.101ZM219.117 146.236V211.947L208.624 206.958V146.236H219.117ZM180.756 146.236H191.422V198.873L180.756 193.885V146.236ZM163.554 174.103V185.8L151.512 180.124L163.554 174.103ZM141.363 359.709C139.824 358.991 138.521 357.849 137.607 356.417C136.694 354.985 136.206 353.323 136.202 351.625V191.821L246.813 244.114V409.078L141.363 359.709ZM246.813 225.02L236.319 220.032V164.298H246.813V225.02ZM241.308 147.096L250.081 132.991H260.747L269.52 147.096H241.308ZM274.68 164.298V220.204L264.015 225.192V164.298H274.68ZM264.101 409.25V244.286L374.884 191.821V351.625C374.882 353.346 374.376 355.029 373.428 356.466C372.481 357.903 371.133 359.03 369.551 359.709L264.101 409.25Z" fill="url(#paint2_linear_1_17)"/>
</g>
<defs>
<radialGradient id="paint0_radial_1_17" cx="0" cy="0" r="1" gradientUnits="userSpaceOnUse" gradientTransform="translate(256) rotate(90) scale(512)">
<stop stop-color="#AE6FFF"/>
<stop offset="1" stop-color="#A8358A"/>
</radialGradient>
<linearGradient id="paint1_linear_1_17" x1="256" y1="0" x2="256" y2="512" gradientUnits="userSpaceOnUse">
<stop stop-color="#DFC6FF"/>
<stop offset="1" stop-color="#81075C"/>
</linearGradient>
<linearGradient id="paint2_linear_1_17" x1="255.5" y1="85" x2="255.5" y2="428" gradientUnits="userSpaceOnUse">
<stop stop-color="#F8F2FF"/>
<stop offset="1" stop-color="#FCC2F0"/>
</linearGradient>
<clipPath id="clip0_1_17">
<rect width="512" height="512" fill="white"/>
</clipPath>
</defs>
</svg>
